# xmcd CD database file
#
# Track frame offsets:
#	150
#	13564
#	26992
#	38999
#	51772
#	63235
#	79714
#	93880
#	108687
#	122254
#	137967
#	151785
#
# Disc length: 2175 seconds
#
# Revision: 0
# Processed by: cddbd v1.5.2PL0 Copyright (c) Steve Scherf et al.
# Submitted via: CDex 1.51
#
DISCID=93087d0c
DTITLE=Modern Jazz Quartet - Autumn breeze
DYEAR=1900
DGENRE=Jazz
TTITLE0=D and E
TTITLE1=Autumn breeze
TTITLE2=Between the devil and the deep blue sea
TTITLE3=Bleusology
TTITLE4=Heart and soul
TTITLE5=Love me pretty Baby
TTITLE6=Milt meets Sid
TTITLE7=Moving nicely
TTITLE8=Round about midnight
TTITLE9=Soflty as in a morning sunrise
TTITLE10=True Blues
TTITLE11=Yesterdays
EXTD=
EXTT0=
EXTT1=
EXTT2=
EXTT3=
EXTT4=
EXTT5=
EXTT6=
EXTT7=
EXTT8=
EXTT9=
EXTT10=
EXTT11=
PLAYORDER=
